<mxfile host="app.diagrams.net" modified="2024-06-12T08:20:31.334Z" agent="Mozilla/5.0 (Windows NT 10.0; Win64; x64) AppleWebKit/537.36 (KHTML, like Gecko) Chrome/125.0.0.0 Safari/537.36" version="24.5.3" etag="bd9tN8F0jinGm6DaUxRW" type="device">
  <diagram name="Page-1" id="PyMClRKMsyZRq7KQ-rci">
    <mxGraphModel dx="2220" dy="1284" grid="1" gridSize="10" guides="1" tooltips="1" connect="1" arrows="1" fold="1" page="1" pageScale="1" pageWidth="1100" pageHeight="850" background="#00FFFF" math="0" shadow="0">
      <root>
        <mxCell id="0" />
        <mxCell id="1" parent="0" />
        <mxCell id="rCTSVCLywreMYYx3JW1W-34" style="edgeStyle=orthogonalEdgeStyle;rounded=0;orthogonalLoop=1;jettySize=auto;html=1;exitX=1;exitY=0.5;exitDx=0;exitDy=0;labelBackgroundColor=none;fontColor=default;sketch=1;curveFitting=1;jiggle=2;" parent="1" source="rCTSVCLywreMYYx3JW1W-1" target="rCTSVCLywreMYYx3JW1W-2" edge="1">
          <mxGeometry relative="1" as="geometry" />
        </mxCell>
        <mxCell id="rCTSVCLywreMYYx3JW1W-1" value="start" style="rhombus;whiteSpace=wrap;html=1;labelBackgroundColor=none;fontStyle=1;fontSize=18;rounded=0;sketch=1;curveFitting=1;jiggle=2;" parent="1" vertex="1">
          <mxGeometry x="-200" y="10" width="160" height="170" as="geometry" />
        </mxCell>
        <mxCell id="rCTSVCLywreMYYx3JW1W-10" style="edgeStyle=orthogonalEdgeStyle;rounded=0;orthogonalLoop=1;jettySize=auto;html=1;exitX=1;exitY=0.5;exitDx=0;exitDy=0;entryX=0.25;entryY=0;entryDx=0;entryDy=0;labelBackgroundColor=none;fontColor=default;sketch=1;curveFitting=1;jiggle=2;" parent="1" source="rCTSVCLywreMYYx3JW1W-2" target="rCTSVCLywreMYYx3JW1W-7" edge="1">
          <mxGeometry relative="1" as="geometry" />
        </mxCell>
        <mxCell id="rCTSVCLywreMYYx3JW1W-2" value="&lt;h2&gt;&lt;font face=&quot;Verdana&quot;&gt;Initialize Tkinter window&lt;/font&gt;&lt;/h2&gt;" style="rounded=0;whiteSpace=wrap;html=1;labelBackgroundColor=none;sketch=1;curveFitting=1;jiggle=2;" parent="1" vertex="1">
          <mxGeometry x="230" width="120" height="130" as="geometry" />
        </mxCell>
        <mxCell id="rCTSVCLywreMYYx3JW1W-8" style="edgeStyle=orthogonalEdgeStyle;rounded=0;orthogonalLoop=1;jettySize=auto;html=1;labelBackgroundColor=none;fontColor=default;sketch=1;curveFitting=1;jiggle=2;" parent="1" source="rCTSVCLywreMYYx3JW1W-7" target="rCTSVCLywreMYYx3JW1W-9" edge="1">
          <mxGeometry relative="1" as="geometry">
            <mxPoint x="650" y="140" as="targetPoint" />
          </mxGeometry>
        </mxCell>
        <mxCell id="rCTSVCLywreMYYx3JW1W-7" value="&lt;h2&gt;Define write_time_to_file&lt;/h2&gt;" style="rounded=0;whiteSpace=wrap;html=1;fontStyle=1;labelBackgroundColor=none;sketch=1;curveFitting=1;jiggle=2;" parent="1" vertex="1">
          <mxGeometry x="360" y="110" width="210" height="60" as="geometry" />
        </mxCell>
        <mxCell id="rCTSVCLywreMYYx3JW1W-11" style="edgeStyle=orthogonalEdgeStyle;rounded=0;orthogonalLoop=1;jettySize=auto;html=1;labelBackgroundColor=none;fontColor=default;sketch=1;curveFitting=1;jiggle=2;" parent="1" source="rCTSVCLywreMYYx3JW1W-9" edge="1">
          <mxGeometry relative="1" as="geometry">
            <mxPoint x="735" y="290.0000000000001" as="targetPoint" />
          </mxGeometry>
        </mxCell>
        <mxCell id="rCTSVCLywreMYYx3JW1W-9" value="&lt;h2&gt;Define read_time_to_file&lt;/h2&gt;" style="rounded=0;whiteSpace=wrap;html=1;fontStyle=1;labelBackgroundColor=none;sketch=1;curveFitting=1;jiggle=2;" parent="1" vertex="1">
          <mxGeometry x="640" y="110" width="190" height="60" as="geometry" />
        </mxCell>
        <mxCell id="rCTSVCLywreMYYx3JW1W-25" style="edgeStyle=orthogonalEdgeStyle;rounded=0;orthogonalLoop=1;jettySize=auto;html=1;entryX=1;entryY=0.5;entryDx=0;entryDy=0;labelBackgroundColor=none;fontColor=default;sketch=1;curveFitting=1;jiggle=2;" parent="1" source="rCTSVCLywreMYYx3JW1W-18" target="rCTSVCLywreMYYx3JW1W-19" edge="1">
          <mxGeometry relative="1" as="geometry" />
        </mxCell>
        <mxCell id="rCTSVCLywreMYYx3JW1W-18" value="&lt;h2&gt;Define time_please function&lt;/h2&gt;&lt;h2&gt;*start_loop&lt;/h2&gt;&lt;h2&gt;&lt;br&gt;*Get present_time&lt;/h2&gt;&lt;h2&gt;&lt;br&gt;*Update_clock_label&lt;/h2&gt;&lt;h2&gt;&lt;br&gt;*write_time_to_file&lt;/h2&gt;&lt;h2&gt;&lt;br&gt;*update greeting label&lt;/h2&gt;&lt;h2&gt;*sleep&lt;/h2&gt;" style="rounded=0;whiteSpace=wrap;html=1;labelBackgroundColor=none;sketch=1;curveFitting=1;jiggle=2;" parent="1" vertex="1">
          <mxGeometry x="596" y="290" width="280" height="350" as="geometry" />
        </mxCell>
        <mxCell id="rCTSVCLywreMYYx3JW1W-27" style="edgeStyle=orthogonalEdgeStyle;rounded=0;orthogonalLoop=1;jettySize=auto;html=1;exitX=0;exitY=0.5;exitDx=0;exitDy=0;entryX=1;entryY=0.5;entryDx=0;entryDy=0;labelBackgroundColor=none;fontColor=default;sketch=1;curveFitting=1;jiggle=2;" parent="1" source="rCTSVCLywreMYYx3JW1W-19" target="rCTSVCLywreMYYx3JW1W-20" edge="1">
          <mxGeometry relative="1" as="geometry" />
        </mxCell>
        <mxCell id="rCTSVCLywreMYYx3JW1W-19" value="&lt;h2&gt;Define start_clock&lt;/h2&gt;" style="rounded=0;whiteSpace=wrap;html=1;labelBackgroundColor=none;sketch=1;curveFitting=1;jiggle=2;" parent="1" vertex="1">
          <mxGeometry x="310" y="410" width="180" height="110" as="geometry" />
        </mxCell>
        <mxCell id="rCTSVCLywreMYYx3JW1W-28" style="edgeStyle=orthogonalEdgeStyle;rounded=0;orthogonalLoop=1;jettySize=auto;html=1;exitX=0;exitY=0.5;exitDx=0;exitDy=0;entryX=0.5;entryY=1;entryDx=0;entryDy=0;labelBackgroundColor=none;fontColor=default;sketch=1;curveFitting=1;jiggle=2;" parent="1" source="rCTSVCLywreMYYx3JW1W-20" target="rCTSVCLywreMYYx3JW1W-21" edge="1">
          <mxGeometry relative="1" as="geometry" />
        </mxCell>
        <mxCell id="rCTSVCLywreMYYx3JW1W-20" value="&lt;h2&gt;Create and pack labels&lt;/h2&gt;" style="rounded=0;whiteSpace=wrap;html=1;labelBackgroundColor=none;sketch=1;curveFitting=1;jiggle=2;" parent="1" vertex="1">
          <mxGeometry x="40" y="600" width="180" height="70" as="geometry" />
        </mxCell>
        <mxCell id="rCTSVCLywreMYYx3JW1W-29" style="edgeStyle=orthogonalEdgeStyle;rounded=0;orthogonalLoop=1;jettySize=auto;html=1;entryX=0.5;entryY=1;entryDx=0;entryDy=0;labelBackgroundColor=none;fontColor=default;sketch=1;curveFitting=1;jiggle=2;" parent="1" source="rCTSVCLywreMYYx3JW1W-21" target="rCTSVCLywreMYYx3JW1W-22" edge="1">
          <mxGeometry relative="1" as="geometry" />
        </mxCell>
        <mxCell id="rCTSVCLywreMYYx3JW1W-21" value="&lt;h2&gt;Read initial_time&lt;/h2&gt;" style="rounded=0;whiteSpace=wrap;html=1;labelBackgroundColor=none;sketch=1;curveFitting=1;jiggle=2;" parent="1" vertex="1">
          <mxGeometry x="-170" y="430" width="120" height="60" as="geometry" />
        </mxCell>
        <mxCell id="rCTSVCLywreMYYx3JW1W-30" style="edgeStyle=orthogonalEdgeStyle;rounded=0;orthogonalLoop=1;jettySize=auto;html=1;exitX=0.5;exitY=0;exitDx=0;exitDy=0;entryX=0;entryY=0.5;entryDx=0;entryDy=0;labelBackgroundColor=none;fontColor=default;sketch=1;curveFitting=1;jiggle=2;" parent="1" source="rCTSVCLywreMYYx3JW1W-22" target="rCTSVCLywreMYYx3JW1W-23" edge="1">
          <mxGeometry relative="1" as="geometry" />
        </mxCell>
        <mxCell id="rCTSVCLywreMYYx3JW1W-22" value="&lt;h2&gt;Set initial time&lt;/h2&gt;" style="rounded=0;whiteSpace=wrap;html=1;labelBackgroundColor=none;sketch=1;curveFitting=1;jiggle=2;" parent="1" vertex="1">
          <mxGeometry x="-300" y="290" width="120" height="60" as="geometry" />
        </mxCell>
        <mxCell id="rCTSVCLywreMYYx3JW1W-31" style="edgeStyle=orthogonalEdgeStyle;rounded=0;orthogonalLoop=1;jettySize=auto;html=1;exitX=1;exitY=0.5;exitDx=0;exitDy=0;labelBackgroundColor=none;fontColor=default;sketch=1;curveFitting=1;jiggle=2;" parent="1" source="rCTSVCLywreMYYx3JW1W-23" edge="1">
          <mxGeometry relative="1" as="geometry">
            <mxPoint x="210" y="270" as="targetPoint" />
          </mxGeometry>
        </mxCell>
        <mxCell id="rCTSVCLywreMYYx3JW1W-23" value="&lt;h2&gt;start_clock&lt;/h2&gt;" style="rounded=0;whiteSpace=wrap;html=1;labelBackgroundColor=none;sketch=1;curveFitting=1;jiggle=2;" parent="1" vertex="1">
          <mxGeometry x="-50" y="220" width="120" height="60" as="geometry" />
        </mxCell>
        <mxCell id="rCTSVCLywreMYYx3JW1W-32" value="&lt;b style=&quot;font-size: 19px;&quot;&gt;main loop&lt;/b&gt;" style="shape=hexagon;perimeter=hexagonPerimeter2;whiteSpace=wrap;html=1;fixedSize=1;fontSize=15;rounded=0;labelBackgroundColor=none;sketch=1;curveFitting=1;jiggle=2;" parent="1" vertex="1">
          <mxGeometry x="210" y="230" width="120" height="80" as="geometry" />
        </mxCell>
        <mxCell id="j6KFmYvYGF5cEMbDRAbb-1" value="&lt;h2&gt;Basics of coding&lt;/h2&gt;&lt;h2&gt;Design concept of my project(Digital Clock)&lt;/h2&gt;" style="rounded=0;whiteSpace=wrap;html=1;sketch=1;hachureGap=4;jiggle=2;curveFitting=1;fontFamily=Verdana;fontStyle=1;fontSize=18;rotation=0;" parent="1" vertex="1">
          <mxGeometry x="-160" y="-180" width="780" height="110" as="geometry" />
        </mxCell>
        <mxCell id="j6KFmYvYGF5cEMbDRAbb-2" value="Text" style="text;html=1;align=center;verticalAlign=middle;resizable=0;points=[];autosize=1;strokeColor=none;fillColor=none;fontFamily=Architects Daughter;fontSource=https%3A%2F%2Ffonts.googleapis.com%2Fcss%3Ffamily%3DArchitects%2BDaughter;" parent="1" vertex="1">
          <mxGeometry x="-225" y="-22" width="50" height="30" as="geometry" />
        </mxCell>
      </root>
    </mxGraphModel>
  </diagram>
</mxfile>
